PathFileType	4	(X/Y/Z)	C:/Users/opensim2020/Desktop/walking_exp_matlab/subject03_walking09_straight_01.trc	
DataRate	CameraRate	NumFrames	NumMarkers	Units	OrigDataRate	OrigDataStartFrame	OrigNumFrames	
100.00	100.00	5	47	mm	100.00	625	493	
Frame#	Time	LFHD			RFHD			LBHD			RBHD			C7			T10			CLAV			STRN			RBAK			LSHO			LUPA			LELB			LFRM			LWRA			LWRB			LFIN			RSHO			RUPA			RELB			RFRM			RWRA			RWRB			RFIN			LASI			RASI			LPSI			RPSI			LTHI			LKNE			LTIB			LANK			LHEE			LTOE			RTHI			RKNE			RTIB			RANK			RHEE			RTOE			*39			*40			*41			*42			*43			*44			*45			*46			
		X1	Y1	Z1	X2	Y2	Z2	X3	Y3	Z3	X4	Y4	Z4	X5	Y5	Z5	X6	Y6	Z6	X7	Y7	Z7	X8	Y8	Z8	X9	Y9	Z9	X10	Y10	Z10	X11	Y11	Z11	X12	Y12	Z12	X13	Y13	Z13	X14	Y14	Z14	X15	Y15	Z15	X16	Y16	Z16	X17	Y17	Z17	X18	Y18	Z18	X19	Y19	Z19	X20	Y20	Z20	X21	Y21	Z21	X22	Y22	Z22	X23	Y23	Z23	X24	Y24	Z24	X25	Y25	Z25	X26	Y26	Z26	X27	Y27	Z27	X28	Y28	Z28	X29	Y29	Z29	X30	Y30	Z30	X31	Y31	Z31	X32	Y32	Z32	X33	Y33	Z33	X34	Y34	Z34	X35	Y35	Z35	X36	Y36	Z36	X37	Y37	Z37	X38	Y38	Z38	X39	Y39	Z39	X40	Y40	Z40	X41	Y41	Z41	X42	Y42	Z42	X43	Y43	Z43	X44	Y44	Z44	X45	Y45	Z45	X46	Y46	Z46	X47	Y47	Z47	

1	0.000	-1064.14124	-1325.84827	1607.69214	-933.35150	-1342.03442	1616.58313	-1075.25720	-1459.16895	1582.32544	-944.38391	-1470.17871	1590.17188	-1013.96460	-1514.45569	1425.24487	-1003.02832	-1576.24805	1115.80261	-1007.95532	-1396.37805	1340.85205	-1009.87079	-1370.16541	1171.68945	-912.43121	-1580.90613	1257.00073	-1163.01099	-1438.91846	1378.48816	-1246.11121	-1429.14026	1191.19702	-1269.35315	-1402.15173	1073.75049	-1276.06323	-1348.81067	955.84637	-1251.78235	-1303.19324	844.86212	-1303.37842	-1326.13867	847.07367	-1299.58008	-1286.99170	772.39081	-849.71082	-1445.38586	1375.18762	-766.25433	-1462.60632	1157.16113	-746.60583	-1453.77380	1045.50732	-739.45483	-1439.29285	909.62891	-772.13495	-1409.12219	813.10840	-728.33173	-1440.50391	809.44678	-737.78558	-1419.95349	737.33228	-1116.73669	-1434.88428	931.86206	-881.80151	-1425.33887	942.82959	-1059.58289	-1593.36707	976.16772	-912.84222	-1583.18713	983.95190	-1146.69324	-1529.91516	638.12549	-1108.17834	-1540.54236	460.63727	-1108.74365	-1607.19019	277.65280	-1070.24109	-1636.39648	66.21280	-1030.21301	-1669.99341	30.60959	-1072.47986	-1482.10266	28.28254	-828.42944	-1431.38550	657.63800	-863.01605	-1384.50854	484.44482	-854.90173	-1406.21338	293.83878	-896.74274	-1401.82727	76.03532	-949.89362	-1441.95154	41.25414	-914.19019	-1262.24280	43.35421																								 
2	0.010	-1064.39771	-1323.25146	1607.27563	-933.88159	-1339.75732	1616.36401	-1075.99426	-1456.65894	1581.89990	-945.11310	-1467.86658	1589.94336	-1014.90149	-1511.80981	1424.93042	-1004.49744	-1573.81641	1115.46558	-1007.39630	-1392.61816	1340.27429	-1008.67804	-1365.15942	1171.36975	-914.01819	-1578.90784	1256.54431	-1163.57312	-1435.40247	1378.17700	-1245.11951	-1424.94092	1190.17114	-1267.51221	-1398.34082	1072.54504	-1273.58533	-1345.97241	954.32056	-1248.43774	-1301.48730	843.07233	-1299.70349	-1323.48010	844.84814	-1295.29224	-1285.46118	770.12079	-850.32666	-1443.89502	1374.63672	-767.42706	-1462.16736	1156.55029	-748.01703	-1453.72437	1044.78296	-741.03088	-1439.69800	908.79407	-773.74585	-1409.37573	812.33563	-730.30341	-1441.15723	808.56671	-739.64502	-1420.78040	736.44031	-1118.23059	-1431.32935	931.30548	-882.68958	-1423.36353	942.19409	-1061.15894	-1590.67932	975.83063	-914.36090	-1581.06189	983.60260	-1147.66614	-1527.42725	637.88025	-1109.03894	-1539.02600	460.32358	-1109.38721	-1606.10681	277.62564	-1070.42578	-1636.20935	66.23579	-1030.38245	-1669.96387	30.78416	-1072.52710	-1482.04260	28.22167	-829.03607	-1431.14575	656.56213	-864.62360	-1384.38403	483.48276	-856.53857	-1402.50732	293.29926	-898.06512	-1392.79919	75.65180	-951.79126	-1432.85999	41.17246	-915.16016	-1252.69141	43.71770																								 
3	0.020	-1065.36060	-1321.04614	1607.16150	-934.32391	-1337.37781	1616.15393	-1076.56470	-1454.07251	1581.46228	-945.68060	-1465.59985	1589.77307	-1015.73364	-1509.15063	1424.64795	-1005.86395	-1571.25879	1115.14417	-1008.58923	-1391.66345	1340.38440	-1007.26849	-1360.53088	1171.89526	-915.40765	-1576.78540	1256.05579	-1164.06909	-1431.97351	1377.94336	-1244.70264	-1421.28577	1189.59399	-1266.11499	-1394.90649	1071.59204	-1271.05981	-1343.37610	952.87396	-1244.82971	-1299.97278	841.31110	-1296.51306	-1321.45496	843.24542	-1291.07849	-1284.11572	767.84808	-850.74750	-1442.03589	1374.13672	-768.64636	-1461.28357	1155.82275	-749.39136	-1453.47229	1043.99048	-742.64520	-1439.77136	908.00696	-775.33093	-1409.50818	811.51477	-732.22211	-1441.58679	807.70624	-741.54535	-1421.39001	735.58850	-1119.19849	-1428.21094	931.00580	-883.57123	-1421.27112	941.55817	-1062.77478	-1587.63586	975.62531	-915.85010	-1578.76208	983.23297	-1148.13330	-1526.45959	635.95386	-1107.98389	-1541.40039	457.98981	-1109.91431	-1605.02319	277.63376	-1070.27356	-1636.39478	66.53486	-1030.28760	-1669.96521	31.06955	-1072.55200	-1482.08789	28.23023	-829.64185	-1431.04944	655.31195	-866.26025	-1384.09338	482.39401	-857.99677	-1398.89929	292.85129	-899.08344	-1384.52454	75.49214	-952.79016	-1423.70447	40.50632	-915.87793	-1243.80322	44.24284																								 
4	0.030	-1065.11682	-1318.18872	1606.63428	-934.59296	-1335.09399	1616.00146	-1077.02991	-1451.46802	1581.07104	-946.20862	-1463.10657	1589.43945	-1016.45251	-1506.55383	1424.46484	-1006.00360	-1570.90552	1116.60327	-1009.23047	-1389.37244	1339.66248	-1009.46838	-1359.85217	1171.06934	-916.73749	-1574.56604	1255.56958	-1164.44995	-1428.39124	1377.68262	-1244.47998	-1418.01099	1189.19067	-1264.31726	-1391.66895	1070.59778	-1268.16125	-1340.81714	951.36505	-1241.12451	-1298.45947	839.61017	-1293.32275	-1319.60962	841.63257	-1287.18396	-1284.25989	765.27856	-851.10297	-1440.21960	1373.52661	-769.64301	-1460.47168	1155.18030	-750.68658	-1453.01416	1043.22876	-744.17822	-1439.71289	907.21924	-776.89124	-1409.33582	810.72064	-734.01575	-1441.85144	806.84790	-743.44977	-1421.88440	734.71875	-1119.65247	-1425.62793	930.81958	-884.45093	-1419.02808	940.95544	-1064.15662	-1584.94592	975.30627	-917.31818	-1576.31152	982.81879	-1150.21436	-1521.76172	636.04962	-1108.54297	-1540.04468	457.67831	-1110.24792	-1604.19543	277.65186	-1070.42139	-1636.15088	66.69289	-1030.34143	-1669.87659	31.35863	-1072.64307	-1482.00513	28.18369	-830.17267	-1430.85425	653.85962	-867.85468	-1383.46838	481.29419	-859.32129	-1395.24731	292.41653	-900.11780	-1376.78467	75.29853	-954.01544	-1415.61316	40.26155	-916.36713	-1235.66748	44.65488																								 
5	0.040	-1065.64258	-1315.85901	1606.44714	-934.76556	-1332.75549	1615.93140	-1077.34351	-1448.82019	1580.63794	-946.58057	-1460.68982	1589.16333	-1017.09039	-1503.61584	1423.95105	-1008.47345	-1565.94861	1114.50537	-1008.42438	-1385.47668	1339.38794	-1007.58698	-1355.42834	1171.02856	-917.89978	-1572.32031	1255.13452	-1164.76978	-1424.99194	1377.50146	-1243.00232	-1414.21155	1188.00269	-1262.45313	-1388.43579	1069.54602	-1265.15088	-1338.48376	950.03790	-1237.49963	-1296.95251	837.93182	-1289.37036	-1317.54504	839.72894	-1282.78589	-1283.27014	763.18787	-851.50153	-1438.36743	1372.91382	-770.66748	-1459.33887	1154.48096	-751.91675	-1452.39917	1042.48706	-745.69147	-1439.42969	906.38458	-778.36145	-1408.89331	810.01898	-735.75189	-1441.88000	805.99951	-745.40314	-1421.88293	733.77734	-1120.95654	-1421.62854	930.35944	-885.28235	-1416.72375	940.33588	-1065.65405	-1581.95947	975.06018	-918.82648	-1573.83704	982.42340	-1152.09241	-1517.94336	635.88586	-1108.89905	-1539.56860	457.10718	-1110.58240	-1603.30261	277.79660	-1070.62805	-1635.93494	66.77129	-1030.30786	-1669.86194	31.74322	-1072.82544	-1481.76282	28.21467	-830.75049	-1430.54626	652.34119	-869.35144	-1382.68909	480.16122	-860.65253	-1391.64478	291.80826	-900.97821	-1369.90955	75.16699	-955.07898	-1408.24426	40.03246	-916.84119	-1228.39990	44.76606																								 
